name rise49.25peak52.1432fall72.8391.mot
datacolumns 19
datarows 26
range 8.55663600000000 8.59829700000000
endheader
time	ground_force1_vx	ground_force1_vy	ground_force1_vz	ground_force1_px	ground_force1_py	ground_force1_pz	ground_force2_vx	ground_force2_vy	ground_force2_vz	ground_force2_px	ground_force2_py	ground_force2_pz	ground_torque1_x	ground_torque1_y	ground_torque1_z	ground_torque2_x	ground_torque2_y	ground_torque2_z	
8.55663600000000	-6.11978700000000	44.12788900000000	-8.03345400000000	0.27778500000000	0.00000000000000	0.13964600000000	-60.57288500000000	796.44489299999998	-54.25759900000000	0.11403800000000	0.00000000000000	-0.05404900000000	0.00000000000000	-4.25599700000000	0.00000000000000	0.00000000000000	-18.21011700000000	0.00000000000000	
8.55829700000000	-6.63272500000000	51.84742600000000	-8.99415000000000	0.28655700000000	0.00000000000000	0.14046900000000	-61.74081700000000	793.72100999999998	-53.95747900000000	0.11291700000000	0.00000000000000	-0.05396400000000	0.00000000000000	-4.89176600000000	0.00000000000000	0.00000000000000	-18.16758600000000	0.00000000000000	
8.55996900000000	-7.00607300000000	59.69614100000000	-9.85164800000000	0.29440700000000	0.00000000000000	0.14120900000000	-62.91070300000000	790.82996400000002	-53.63529200000000	0.11180800000000	0.00000000000000	-0.05387600000000	0.00000000000000	-5.49475700000000	0.00000000000000	0.00000000000000	-18.12407900000000	0.00000000000000	
8.56163700000000	-7.22195300000000	67.57505800000000	-10.58408500000000	0.30148000000000	0.00000000000000	0.14187900000000	-64.08079800000000	787.76765599999999	-53.29081400000000	0.11071200000000	0.00000000000000	-0.05378500000000	0.00000000000000	-6.05070300000000	0.00000000000000	0.00000000000000	-18.07945900000000	0.00000000000000	
8.56330200000000	-7.26981500000000	75.40835500000000	-11.17700900000000	0.30789200000000	0.00000000000000	0.14249100000000	-65.24926400000000	784.53002000000004	-52.92385000000000	0.10963000000000	0.00000000000000	-0.05369000000000	0.00000000000000	-6.54913700000000	0.00000000000000	0.00000000000000	-18.03357900000000	0.00000000000000	
8.56496600000000	-7.14628400000000	83.14582600000000	-11.62345400000000	0.31373500000000	0.00000000000000	0.14305300000000	-66.41417100000000	781.11303899999996	-52.53423700000000	0.10856100000000	0.00000000000000	-0.05359300000000	0.00000000000000	-6.98363500000000	0.00000000000000	0.00000000000000	-17.98627900000000	0.00000000000000	
8.56663000000000	-6.85446300000000	90.76281600000000	-11.92338100000000	0.31908600000000	0.00000000000000	0.14357400000000	-67.57350200000000	777.51275599999997	-52.12184100000000	0.10750500000000	0.00000000000000	-0.05349300000000	0.00000000000000	-7.35169400000000	0.00000000000000	0.00000000000000	-17.93738800000000	0.00000000000000	
8.56830600000000	-6.40282300000000	98.25806799999999	-12.08265400000000	0.32400600000000	0.00000000000000	0.14405800000000	-68.72515600000000	773.72529799999995	-51.68656400000000	0.10646400000000	0.00000000000000	-0.05339000000000	0.00000000000000	-7.65430600000000	0.00000000000000	0.00000000000000	-17.88672500000000	0.00000000000000	
8.56996300000000	-5.80385000000000	105.65001800000000	-12.11170700000000	0.32854600000000	0.00000000000000	0.14451200000000	-69.86694700000000	769.74689000000001	-51.22834200000000	0.10543600000000	0.00000000000000	-0.05328300000000	0.00000000000000	-7.89531200000000	0.00000000000000	0.00000000000000	-17.83410200000000	0.00000000000000	
8.57164700000000	-5.07259900000000	112.97211500000000	-12.02406800000000	0.33275000000000	0.00000000000000	0.14493800000000	-70.99661800000000	765.57387500000004	-50.74715100000000	0.10442300000000	0.00000000000000	-0.05317400000000	0.00000000000000	-8.08063000000000	0.00000000000000	0.00000000000000	-17.77931900000000	0.00000000000000	
8.57329700000000	-4.22530200000000	120.26772300000000	-11.83489200000000	0.33665200000000	0.00000000000000	0.14534000000000	-72.11183500000000	761.20273399999996	-50.24300300000000	0.10342400000000	0.00000000000000	-0.05306200000000	0.00000000000000	-8.21744900000000	0.00000000000000	0.00000000000000	-17.72216800000000	0.00000000000000	
8.57496700000000	-3.27811200000000	127.58509700000000	-11.55960900000000	0.34028400000000	0.00000000000000	0.14572200000000	-73.21020000000000	756.63010799999995	-49.71595100000000	0.10243900000000	0.00000000000000	-0.05294700000000	0.00000000000000	-8.31345500000000	0.00000000000000	0.00000000000000	-17.66243500000000	0.00000000000000	
8.57663500000000	-2.24608200000000	134.97281599999999	-11.21279000000000	0.34367100000000	0.00000000000000	0.14608500000000	-74.28925400000000	751.85281699999996	-49.16609200000000	0.10146900000000	0.00000000000000	-0.05283000000000	0.00000000000000	-8.37614900000000	0.00000000000000	0.00000000000000	-17.59989900000000	0.00000000000000	
8.57830200000000	-1.14240800000000	142.47595699999999	-10.80727100000000	0.34683800000000	0.00000000000000	0.14643100000000	-75.34648500000000	746.86788500000000	-48.59356300000000	0.10051400000000	0.00000000000000	-0.05270900000000	0.00000000000000	-8.41230200000000	0.00000000000000	0.00000000000000	-17.53433300000000	0.00000000000000	
8.57996900000000	0.02205600000000	150.13317100000000	-10.35356700000000	0.34980200000000	0.00000000000000	0.14676200000000	-76.37933099999999	741.67255799999998	-47.99854800000000	0.09957300000000	0.00000000000000	-0.05258600000000	0.00000000000000	-8.42755700000000	0.00000000000000	0.00000000000000	-17.46550600000000	0.00000000000000	
8.58163500000000	1.23901000000000	157.97473700000000	-9.85956000000000	0.35258000000000	0.00000000000000	0.14708000000000	-77.38518900000000	736.26432599999998	-47.38127400000000	0.09864800000000	0.00000000000000	-0.05245900000000	0.00000000000000	-8.42619300000000	0.00000000000000	0.00000000000000	-17.39318200000000	0.00000000000000	
8.58330100000000	2.50268600000000	166.02154400000001	-9.33044500000000	0.35518800000000	0.00000000000000	0.14738600000000	-78.36142500000000	730.64094399999999	-46.74201500000000	0.09773700000000	0.00000000000000	-0.05233000000000	0.00000000000000	-8.41103500000000	0.00000000000000	0.00000000000000	-17.31712500000000	0.00000000000000	
8.58496400000000	3.80964100000000	174.28493700000001	-8.76888900000000	0.35763800000000	0.00000000000000	0.14768100000000	-79.30537699999999	724.80044799999996	-46.08109400000000	0.09684100000000	0.00000000000000	-0.05219800000000	0.00000000000000	-8.38349200000000	0.00000000000000	0.00000000000000	-17.23709400000000	0.00000000000000	
8.58663700000000	5.15840400000000	182.76725300000001	-8.17535200000000	0.35994200000000	0.00000000000000	0.14796600000000	-80.21436300000001	718.74117400000000	-45.39888000000000	0.09596000000000	0.00000000000000	-0.05206400000000	0.00000000000000	-8.34370100000000	0.00000000000000	0.00000000000000	-17.15285000000000	0.00000000000000	
8.58830000000000	6.54903500000000	191.46290700000000	-7.54851000000000	0.36210900000000	0.00000000000000	0.14824100000000	-81.08569300000001	712.46177399999999	-44.69579200000000	0.09509400000000	0.00000000000000	-0.05192700000000	0.00000000000000	-8.29073700000000	0.00000000000000	0.00000000000000	-17.06415400000000	0.00000000000000	
8.58996300000000	7.98264700000000	200.35981799999999	-6.88574600000000	0.36414800000000	0.00000000000000	0.14850800000000	-81.91667300000000	705.96122400000002	-43.97229800000000	0.09424300000000	0.00000000000000	-0.05178700000000	0.00000000000000	-8.22287500000000	0.00000000000000	0.00000000000000	-16.97076600000000	0.00000000000000	
8.59163500000000	9.46093500000000	209.44103300000000	-6.18364500000000	0.36606700000000	0.00000000000000	0.14876600000000	-82.70461400000001	699.23884199999998	-43.22891500000000	0.09340600000000	0.00000000000000	-0.05164400000000	0.00000000000000	-8.13786100000000	0.00000000000000	0.00000000000000	-16.87245300000000	0.00000000000000	
8.59329900000000	10.98573400000000	218.68636699999999	-5.43845700000000	0.36787200000000	0.00000000000000	0.14901700000000	-83.44684200000000	692.29429000000005	-42.46621400000000	0.09258500000000	0.00000000000000	-0.05149800000000	0.00000000000000	-8.03317900000000	0.00000000000000	0.00000000000000	-16.76898300000000	0.00000000000000	
8.59496600000000	12.55865300000000	228.07396100000000	-4.64651300000000	0.36957100000000	0.00000000000000	0.14926100000000	-84.14070500000000	685.12758499999995	-41.68481500000000	0.09177800000000	0.00000000000000	-0.05135000000000	0.00000000000000	-7.90629300000000	0.00000000000000	0.00000000000000	-16.66013000000000	0.00000000000000	
8.59663700000000	14.18077900000000	237.58163900000000	-3.80455600000000	0.37116700000000	0.00000000000000	0.14949900000000	-84.78358500000000	677.73910599999999	-40.88538900000000	0.09098700000000	0.00000000000000	-0.05120000000000	0.00000000000000	-7.75484300000000	0.00000000000000	0.00000000000000	-16.54567300000000	0.00000000000000	
8.59829700000000	15.85247200000000	247.18801700000000	-2.90998900000000	0.37266600000000	0.00000000000000	0.14973000000000	-85.37290400000001	670.12959799999999	-40.06866000000000	0.09021000000000	0.00000000000000	-0.05104600000000	0.00000000000000	-7.57680400000000	0.00000000000000	0.00000000000000	-16.42540100000000	0.00000000000000	
